<svg width="50" height="50" viewBox="0 0 50 50" fill="none" xmlns="http://www.w3.org/2000/svg">
<path d="M28.8124 10.4167C28.5012 10.4156 28.1937 10.4843 27.9125 10.6177C27.6313 10.7511 27.3835 10.9458 27.1874 11.1875L17.1249 23.6875C16.8185 24.0603 16.651 24.5279 16.651 25.0104C16.651 25.493 16.8185 25.9606 17.1249 26.3333L27.5416 38.8333C27.8952 39.2588 28.4034 39.5263 28.9543 39.5771C29.5051 39.6279 30.0536 39.4578 30.4791 39.1042C30.9046 38.7505 31.1721 38.2424 31.2229 37.6915C31.2737 37.1406 31.1036 36.5921 30.7499 36.1667L21.4374 25L30.4374 13.8333C30.6922 13.5275 30.854 13.1552 30.9038 12.7603C30.9535 12.3654 30.8891 11.9645 30.7182 11.605C30.5472 11.2456 30.2769 10.9427 29.9391 10.7321C29.6014 10.5215 29.2104 10.412 28.8124 10.4167Z" fill="#03358C"/>
</svg>
