<svg width="45" height="45" viewBox="0 0 45 45" fill="none" xmlns="http://www.w3.org/2000/svg">
<circle cx="22.5" cy="22.5" r="22.5" fill="#03358C"/>
<path d="M26.7501 32.0879C26.5597 32.0879 26.3693 32.0146 26.2257 31.8682L17.2667 22.6836L17.2609 22.6777C17.2198 22.6338 17.173 22.625 17.1407 22.625C17.1085 22.6221 17.0616 22.6338 17.0206 22.6777L13.0861 26.8086C12.8077 27.1016 12.3448 27.1133 12.0519 26.835C11.7589 26.5566 11.7472 26.0938 12.0255 25.8008L15.9571 21.6729C16.2618 21.3506 16.6925 21.166 17.1407 21.166H17.1437C17.589 21.166 18.0196 21.3535 18.3243 21.6758L27.2745 30.8486C27.5558 31.1387 27.5499 31.6016 27.2628 31.8857C27.1193 32.0205 26.9347 32.0879 26.7501 32.0879ZM33.4767 29.9258C33.2833 29.9258 33.09 29.8496 32.9464 29.7002L28.7745 25.3291C28.7335 25.2852 28.6866 25.2764 28.6544 25.2764C28.6222 25.2764 28.5753 25.2852 28.5343 25.3262L25.9445 28.1387C25.6691 28.4375 25.2062 28.4551 24.9103 28.1826C24.6114 27.9072 24.5939 27.4443 24.8663 27.1484L27.462 24.3271C27.7696 24.002 28.2003 23.8145 28.6486 23.8115H28.6515C29.0968 23.8115 29.5275 23.9961 29.8351 24.3213L34.004 28.6865C34.2823 28.9795 34.2736 29.4424 33.9806 29.7207C33.84 29.8584 33.6583 29.9258 33.4767 29.9258Z" fill="white"/>
<path d="M33.7285 33.8896H12.2773C11.0645 33.8896 10.0801 32.9053 10.0801 31.6924V14.3809C10.0801 13.168 11.0645 12.1836 12.2773 12.1836H33.7256C34.9385 12.1836 35.9229 13.168 35.9229 14.3809V31.6924C35.9258 32.9053 34.9385 33.8896 33.7285 33.8896ZM12.2773 13.6484C11.873 13.6484 11.5449 13.9766 11.5449 14.3809V31.6924C11.5449 32.0967 11.873 32.4248 12.2773 32.4248H33.7256C34.1299 32.4248 34.458 32.0967 34.458 31.6924V14.3809C34.458 13.9766 34.1299 13.6484 33.7256 13.6484H12.2773Z" fill="white"/>
</svg>
